<?xml version="1.0" encoding="UTF-8" standalone="no"?>
<!-- Created with Inkscape (http://www.inkscape.org/) -->

<svg
   width="1024"
   height="1024"
   viewBox="0 0 1024 1024"
   version="1.1"
   id="svg23677"
   inkscape:version="1.2.2 (b0a8486541, 2022-12-01)"
   sodipodi:docname="pibsl.svg"
   inkscape:export-filename="icon.png"
   inkscape:export-xdpi="96"
   inkscape:export-ydpi="96"
   xmlns:inkscape="http://www.inkscape.org/namespaces/inkscape"
   xmlns:sodipodi="http://sodipodi.sourceforge.net/DTD/sodipodi-0.dtd"
   xmlns="http://www.w3.org/2000/svg"
   xmlns:svg="http://www.w3.org/2000/svg">
  <sodipodi:namedview
     id="namedview23679"
     pagecolor="#ffffff"
     bordercolor="#666666"
     borderopacity="1.0"
     inkscape:showpageshadow="2"
     inkscape:pageopacity="0.0"
     inkscape:pagecheckerboard="true"
     inkscape:deskcolor="#d1d1d1"
     inkscape:document-units="px"
     showgrid="true"
     inkscape:zoom="0.24685905"
     inkscape:cx="565.09981"
     inkscape:cy="204.57018"
     inkscape:window-width="1128"
     inkscape:window-height="689"
     inkscape:window-x="0"
     inkscape:window-y="0"
     inkscape:window-maximized="1"
     inkscape:current-layer="layer2">
    <inkscape:grid
       type="xygrid"
       id="grid27065"
       spacingx="16"
       spacingy="16"
       empspacing="4" />
  </sodipodi:namedview>
  <defs
     id="defs23674" />
  <g
     inkscape:groupmode="layer"
     id="layer2"
     inkscape:label="bg">
    <circle
       style="fill:#ffffff;stroke:none;stroke-width:0.3"
       id="path15399"
       cx="512"
       cy="512"
       r="512" />
    <ellipse
       style="fill:#000000;stroke:none;stroke-width:0.214228"
       id="path15401"
       cx="509.28897"
       cy="969.5"
       rx="90"
       ry="22.5" />
  </g>
  <g
     inkscape:label="Layer 1"
     inkscape:groupmode="layer"
     id="layer1">
    <path
       fill="#34495e"
       d="m 662.83574,606.96174 c 0,0 -3.91896,-105.52188 19.66743,-232.48927 46.70106,124.06444 141.91749,194.67848 138.39767,240.87149 -69.92455,50.51118 -158.0651,-8.38222 -158.0651,-8.38222 z"
       id="path30056"
       style="fill:#000000;stroke-width:36.2866" />
    <path
       fill="#34495e"
       d="m 361.16424,606.96174 c 0,0 3.91898,-105.52188 -19.66742,-232.48927 -46.70105,124.06444 -141.91749,194.67848 -138.39767,240.87149 69.92457,50.51118 158.06509,-8.38222 158.06509,-8.38222 z"
       id="path30058"
       style="fill:#000000;stroke-width:36.2866" />
    <path
       style="fill:#000000;stroke:none;stroke-width:23.5961"
       d="m 640.60268,680.31417 -17.90234,2.9305 -46.63526,7.45402 -17.96605,2.8669 c -1.90399,4.51195 -3.65302,9.44216 -5.09674,15.48138 -8.64925,36.01811 -6.47952,95.12027 6.43463,175.5194 2.06936,12.88342 14.15268,21.62447 27.01278,19.5588 12.86012,-2.06569 21.62817,-14.19309 19.55881,-27.07651 l 5.03301,31.09018 c 2.06936,12.88342 14.1527,21.62453 27.01282,19.55879 12.86012,-2.0657 21.62814,-14.19302 19.55877,-27.07649 l -4.96934,-31.02635 c 2.06937,12.88343 14.15269,21.62447 27.01279,19.55878 12.86016,-2.06567 21.62814,-14.12936 19.5588,-27.01278 -12.91417,-80.39913 -29.37118,-137.20494 -48.8651,-168.70251 -3.28567,-5.27954 -6.52611,-9.43542 -9.74758,-13.12411 z"
       id="path2641" />
    <path
       style="fill:#000000;stroke:none;stroke-width:23.5961"
       d="m 374.2974,680.31417 c -3.22147,3.68869 -6.46187,7.84457 -9.74754,13.12411 -19.49395,31.49757 -35.95095,88.30338 -48.86511,168.70251 -2.0694,12.88342 6.69864,24.94711 19.55878,27.01278 12.86011,2.06569 24.94339,-6.67535 27.01279,-19.55878 l -4.96933,31.02647 c -2.06941,12.88343 6.69865,25.01085 19.55879,27.07655 12.86011,2.06556 24.94335,-6.67538 27.01278,-19.5588 l 5.03305,-31.09021 c -2.06937,12.88341 6.69868,25.01081 19.55877,27.07649 12.86013,2.06568 24.94336,-6.67537 27.01279,-19.55879 12.91418,-80.39913 15.0839,-139.50129 6.43466,-175.5194 -1.44373,-6.03922 -3.19277,-10.96942 -5.09676,-15.48137 l -17.96603,-2.86691 -46.63531,-7.45401 z"
       id="path30048" />
    <path
       style="fill:#ffffff;stroke-width:23.5961"
       d="m 385.1547,709.1745 1.52886,0.25444 h 0.0653 l 46.6353,7.45398 1.59279,0.25443 c 6.33773,28.16806 1.0223,137.2137 -14.23795,87.0732 -11.26276,-37.0058 -33.36362,-29.86582 -48.92009,-15.8245 -38.91048,35.12072 -1.50699,-54.43904 13.33729,-79.21239 z"
       id="path2633" />
    <path
       style="fill:#ffffff;stroke-width:23.5961"
       d="m 628.49792,709.1745 -1.52886,0.25444 h -0.0652 l -46.6353,7.45398 -1.59281,0.25443 c -6.33771,28.16806 -1.02229,137.2137 14.23797,87.0732 11.26277,-37.0058 33.36362,-29.86582 48.92008,-15.8245 38.91047,35.12072 1.507,-54.43904 -13.33729,-79.21239 z"
       id="path2631" />
    <path
       d="m 668.52271,288.66698 c -3.26192,-10.76433 -5.54527,-21.85487 -7.82862,-32.94541 -6.52384,-28.7049 -9.45957,-58.0622 -22.83345,-85.13615 C 614.04862,119.04706 572.62222,92.299304 512.60286,90.015959 453.56209,91.64692 409.52615,116.43753 383.75697,168.30209 c -6.85003,14.02625 -11.74291,28.70491 -15.00484,43.70973 -5.54527,24.79062 -10.43815,50.55979 -16.30961,75.67658 0,0 -23.2393,175.45807 -41.52261,277.92964 21.20249,70.13131 35.65116,133.07246 106.43485,160.4726 134.39117,50.88597 262.51848,-21.52869 296.44246,-149.39601"
       id="path5023"
       style="stroke-width:32.6193" />
    <path
       d="m 592.84614,297.14798 c -13.70008,9.13338 -57.08364,33.92398 -63.60748,38.81686 -12.72149,10.11195 -24.4644,9.45957 -37.1859,-0.32618 -6.52384,-5.21909 -49.90739,-30.00969 -63.60747,-38.81688 -15.65722,-10.11195 -14.67865,-22.83345 2.60955,-30.00967 53.4955,-22.50726 106.99101,-20.8763 160.16033,0.97857 15.98342,6.85004 16.6358,19.57153 1.63097,29.3573"
       id="path31273"
       style="fill:#ffffff;stroke-width:32.6193" />
    <path
       d="m 509.27437,692.4083 c -56.68401,0 -125.82679,-26.87024 -125.82679,-126.08908 0,-47.67873 17.9815,-70.54173 17.9815,-70.54173 0,0 -34.44756,-129.3386 62.92071,-129.3386 24.23277,0 36.79356,23.05245 44.93917,23.05245 8.14559,0 24.1599,-23.05245 44.93915,-23.05245 97.3683,0 62.9207,129.3386 62.9207,129.3386 0,0 17.98155,22.863 17.98155,70.54173 -0.0286,99.21884 -69.17196,126.08908 -125.85599,126.08908 z"
       id="path2637"
       style="fill:#ffffff;stroke-width:14.5718" />
    <ellipse
       style="fill:#000000;stroke-width:213.953"
       id="path2695"
       cx="511.8175"
       cy="198.5085"
       rx="212.05789"
       ry="32.674934" />
    <path
       style="fill:#000000;stroke:none;stroke-width:32.6193px;stroke-linecap:butt;stroke-linejoin:miter;stroke-opacity:1"
       d="m 380.73239,191.7522 c 0,0 7.73528,-116.176408 19.33689,-126.90066 11.60164,-10.724284 73.97095,-33.559919 116.0012,-32.834664 42.03025,0.725125 93.81452,18.111232 106.61032,30.827605 12.7958,12.716372 20.22183,125.843179 20.22183,125.843179 z"
       id="path3529"
       sodipodi:nodetypes="czzzcc" />
    <path
       style="fill:#000000;stroke:none;stroke-width:3.26193;stroke-linecap:butt;stroke-linejoin:miter;stroke-dasharray:none;stroke-opacity:1"
       d="m 507.15719,240.50236 c 36.37397,-2.65846 28.46264,39.80607 105.48464,38.30693 33.8188,-0.65826 10.03608,-104.17035 10.03608,-104.17035 l -219.4655,-3.03422 c 0,0 -37.34718,117.18005 26.76843,107.12942 64.11564,-10.05063 40.80236,-35.57318 77.17635,-38.23178 z"
       id="path4257"
       sodipodi:nodetypes="zscczz" />
    <path
       style="fill:none;stroke:none;stroke-width:32.6193px;stroke-linecap:butt;stroke-linejoin:miter;stroke-opacity:1"
       d="m 506.16044,386.72774 -16.51015,238.92103 h 30.23367 l -0.32293,-241.99533 z"
       id="path5751" />
    <path
       style="fill:#ffffff;stroke:none;stroke-width:4.375;stroke-linecap:butt;stroke-linejoin:miter;stroke-dasharray:none;stroke-opacity:1"
       d="m 410.98605,157.36665 0.91675,-48.65403 30.19214,2.54289 -1.03515,50.28267 z"
       id="path10028"
       sodipodi:nodetypes="ccccc" />
    <g
       id="use10923"
       transform="matrix(0.00689189,0.00100304,-1.3116012e-4,0.00788364,416.75041,116.28025)"
       style="stroke:#000000;stroke-width:237.127;stroke-dasharray:none">
      <path
         d="m -225,-225 c -20,-40 25,-235 225,-235 200,0 225,135 225,235 0,200 -450,385 -450,685 H 225 V 300"
         stroke="#000000"
         stroke-width="80"
         stroke-linecap="square"
         stroke-miterlimit="1.5"
         fill="none"
         id="path12545"
         style="stroke:#000000;stroke-width:237.127;stroke-dasharray:none" />
    </g>
    <g
       id="use10925"
       transform="matrix(0.00480441,6.9923994e-4,-9.1437159e-5,0.00549577,416.60959,125.61826)"
       style="fill:#000000;stroke:#000000;stroke-width:34.0156;stroke-dasharray:none">
      <path
         d="m 30,150 c 5,235 55,250 100,350 H -130 C -85,400 -35,385 -30,150 a 10,10 0 0 0 -20,0 210,210 0 1 1 -74,-201 10,10 0 0 0 14,-14 230,230 0 1 1 220,0 10,10 0 0 0 14,14 210,210 0 1 1 -74,201 10,10 0 0 0 -20,0 z"
         fill="#000000"
         id="path12549"
         style="fill:#000000;stroke:#000000;stroke-width:34.0156;stroke-dasharray:none" />
    </g>
    <g
       id="use10927"
       transform="matrix(0.01256335,0.00182847,-2.3909704e-4,0.01437125,426.46556,138.08472)"
       style="fill:#000000;stroke:#000000;stroke-width:19.5121;stroke-dasharray:none">
      <path
         d="m 30,150 c 5,235 55,250 100,350 H -130 C -85,400 -35,385 -30,150 a 10,10 0 0 0 -20,0 210,210 0 1 1 -74,-201 10,10 0 0 0 14,-14 230,230 0 1 1 220,0 10,10 0 0 0 14,14 210,210 0 1 1 -74,201 10,10 0 0 0 -20,0 z"
         fill="#000000"
         id="path12553"
         style="fill:#000000;stroke:#000000;stroke-width:19.5121;stroke-dasharray:none" />
    </g>
  </g>
</svg>
