<?xml version="1.0" encoding="UTF-8" standalone="no"?>
<!-- Created with Inkscape (http://www.inkscape.org/) -->

<svg
   width="1024"
   height="1024"
   viewBox="0 0 1024 1024"
   version="1.1"
   id="svg23677"
   inkscape:version="1.2.2 (b0a8486541, 2022-12-01)"
   sodipodi:docname="wordmark.svg"
   inkscape:export-filename="icon.png"
   inkscape:export-xdpi="96"
   inkscape:export-ydpi="96"
   xmlns:inkscape="http://www.inkscape.org/namespaces/inkscape"
   xmlns:sodipodi="http://sodipodi.sourceforge.net/DTD/sodipodi-0.dtd"
   xmlns="http://www.w3.org/2000/svg"
   xmlns:svg="http://www.w3.org/2000/svg">
  <sodipodi:namedview
     id="namedview23679"
     pagecolor="#ffffff"
     bordercolor="#666666"
     borderopacity="1.0"
     inkscape:showpageshadow="2"
     inkscape:pageopacity="0.0"
     inkscape:pagecheckerboard="true"
     inkscape:deskcolor="#d1d1d1"
     inkscape:document-units="px"
     showgrid="false"
     inkscape:zoom="0.20083342"
     inkscape:cx="102.07464"
     inkscape:cy="913.69254"
     inkscape:window-width="1128"
     inkscape:window-height="689"
     inkscape:window-x="0"
     inkscape:window-y="0"
     inkscape:window-maximized="1"
     inkscape:current-layer="layer1">
    <inkscape:grid
       type="xygrid"
       id="grid27065"
       spacingx="16"
       spacingy="16"
       empspacing="4" />
  </sodipodi:namedview>
  <defs
     id="defs23674" />
  <g
     inkscape:groupmode="layer"
     id="layer2"
     inkscape:label="bg">
    <rect
       style="fill:#000000;stroke-width:0"
       id="rect1390"
       width="1024"
       height="1024"
       x="0"
       y="0" />
  </g>
  <g
     inkscape:label="Layer 1"
     inkscape:groupmode="layer"
     id="layer1">
    <g
       aria-label="SKA
LinuX"
       id="text38164"
       style="font-size:199.718px;line-height:0.85;font-family:'Bowlby One SC';-inkscape-font-specification:'Bowlby One SC';text-align:center;text-anchor:middle;fill:#ffffff;stroke-width:4.99296"
       transform="matrix(1.405752,0,0,1.405752,-209.58456,14.065077)">
      <path
         d="m 345.28411,349.29759 q -11.50719,-0.4876 -20.67393,-2.04789 -9.16675,-1.46278 -17.74838,-4.77841 -8.48411,-3.41315 -14.33523,-8.48412 -5.75359,-5.16848 -9.65433,-13.165 -3.80323,-7.99652 -4.68089,-18.52853 0,-1.85285 1.95037,-2.14541 0.58511,0.19504 1.95037,0.19504 8.09404,0 24.57467,-0.39007 16.48064,-0.39008 24.57468,-0.39008 2.04789,0 3.21811,1.36526 1.17023,1.26774 1.85286,3.21811 0.78014,1.85286 1.75533,3.80323 1.0727,1.85285 3.51067,3.21811 2.53548,1.26774 6.43622,1.26774 4.77841,0 8.3866,-2.633 3.7057,-2.73052 3.7057,-7.31389 0,-3.02308 -3.12059,-5.55856 -3.12059,-2.53548 -8.28908,-4.09578 -5.07096,-1.65781 -9.75185,-2.73052 -4.58338,-1.17022 -9.4593,-1.95037 -4.87593,-0.87767 -5.65608,-1.0727 -23.69701,-6.43623 -34.13149,-15.99305 -10.33697,-9.55681 -10.33697,-26.13497 0,-11.70223 4.29082,-20.96649 4.29081,-9.36178 11.21463,-15.21289 6.92382,-5.94864 16.38312,-9.84938 9.4593,-3.99826 19.11363,-5.55856 9.65434,-1.65781 19.99131,-1.65781 27.40271,0 43.68831,10.14193 5.94863,5.94863 8.67915,9.06922 2.82804,3.02308 5.36352,7.11886 2.633,4.09578 3.60819,8.09404 1.0727,3.90074 1.46278,9.65434 l -3.51067,3.51066 q -19.9913,0.78015 -44.85854,0.78015 -3.12059,0 -5.07096,-0.68263 -1.85285,-0.68263 -2.53548,-1.75533 -0.58511,-1.07271 -1.26774,-2.24293 -0.58512,-1.17022 -1.17023,-2.24292 -0.48759,-1.07271 -2.24292,-1.75534 -1.65782,-0.68263 -4.48586,-0.68263 -0.78015,0 -2.53548,0.29256 -1.65782,0.29255 -3.99826,0.97518 -2.24293,0.58511 -3.90074,1.95037 -1.65782,1.26775 -1.65782,3.02308 0,2.14541 2.14541,3.90074 2.24293,1.75534 4.68089,2.53548 2.43796,0.78015 6.04615,1.75534 3.60819,0.87766 4.48585,1.17022 21.25905,5.36352 25.35483,6.63126 21.35656,6.72878 30.23075,17.65086 8.19156,10.14193 8.19156,25.45234 0,9.26427 -2.43796,16.87071 -2.34045,7.60645 -6.24119,12.87245 -3.90074,5.26601 -9.75186,9.36178 -5.85111,4.09578 -11.89726,6.53375 -5.94863,2.43796 -13.55508,4.09578 -7.60645,1.65781 -14.04267,2.34044 -6.33871,0.78015 -13.84764,1.17023 z"
         id="path1259" />
      <path
         d="m 434.6111,346.56707 q -2.14541,0 -3.31563,-0.4876 -1.0727,-0.39007 -1.46278,-0.97518 -0.29255,-0.58511 -1.0727,-2.24293 V 204.18997 q 0,-2.1454 0,-3.12059 0.0975,-0.97518 0.39007,-2.24293 0.29256,-1.36526 0.87767,-1.85285 0.68263,-0.58511 1.85285,-0.97518 1.17023,-0.39008 2.92556,-0.39008 h 39.98261 q 14.04267,0 14.04267,3.51067 v 0.19504 q -0.39007,36.2769 -0.39007,54.02528 l 27.40271,-57.04836 20.18634,0.0975 q 41.34787,0 41.34787,1.95037 0,0.39008 -0.39008,0.39008 -18.9186,34.13149 -38.42231,67.87291 v 2.73052 l 3.99826,2.53548 40.76276,70.11584 q 0,1.5603 -2.24293,3.41315 h -62.60691 l -27.89031,-54.41535 q -0.58511,5.36352 -0.87766,15.60297 -0.29256,10.23945 -0.4876,13.45756 v 23.01438 q -0.68263,3.51067 -11.70222,3.51067 z"
         id="path1261" />
      <path
         d="m 574.84281,343.44647 q 6.04615,-22.33175 13.36004,-45.34613 7.31389,-23.01438 18.13845,-55.00046 10.92208,-32.08361 14.92034,-44.37094 1.17022,-1.95038 1.5603,-2.34045 h 16.38311 q 5.7536,0 16.96823,-0.19504 11.21464,-0.19503 16.96823,-0.19503 h 16.38312 q 1.46278,0 2.43796,0.0975 0.97519,0 2.34045,0.19504 1.36526,0.19504 2.14541,0.58511 0.87766,0.39008 1.46277,1.17023 0.58512,0.78014 0.58512,1.85285 l 44.95605,142.47461 q 0,1.95037 -1.46278,2.633 -1.36526,0.78015 -5.266,0.78015 h -8.97171 q -3.90074,0 -11.60471,0.0975 -7.70396,0.0975 -11.6047,0.0975 -1.17023,0 -4.77841,0.0975 -3.51067,0.19504 -5.94864,0.0975 -2.43796,0 -5.46103,-0.29255 -2.92556,-0.19504 -4.77841,-1.07271 -1.75534,-0.78015 -2.24293,-2.14541 v -6.43622 q -0.97519,-4.87593 -3.41315,-8.97171 -2.43796,-4.09578 -5.16848,-4.09578 h -33.54639 l -5.07096,20.67394 q -1.07271,2.34044 -10.92208,2.34044 h -7.80148 q -4.1933,0 -12.48238,0.29256 -8.28908,0.29255 -12.48237,0.29255 h -2.73052 q -1.5603,0 -4.97345,0.0975 -3.31563,0.0975 -5.16848,0.0975 -0.78015,-0.78015 -2.73052,-3.51067 z m 67.67787,-59.19376 2.73052,4.58337 h 6.43623 q 7.80148,0 14.23771,-0.87767 6.53374,-0.97518 6.53374,-3.02307 l -12.57989,-56.17069 q -1.75534,0 -4.77841,6.63126 -2.92556,6.63126 -4.77841,15.01786 z"
         id="path1263" />
      <path
         d="m 194.61794,382.92199 q 0,-15.89553 3.31564,-17.74838 0.97518,0.19504 2.73051,0.19504 h 3.1206 q 3.02307,0 9.94689,-0.19504 6.92382,-0.19504 10.53201,-0.19504 13.84763,0 22.33174,1.17023 8.58164,1.0727 9.65434,4.09578 l -1.17022,100.63915 h 2.14541 q 7.80148,-0.39008 10.92208,-0.29256 3.12059,0 11.40967,0.39007 8.38659,0.29256 16.09056,0.29256 6.3387,0 9.36178,0.78015 3.12059,0.68263 3.12059,2.92556 v 37.44712 q -1.26774,3.51067 -43.49327,3.51067 h -67.48284 q -2.34045,-3.41315 -2.34045,-10.92208 v -27.69527 q 0,-12.18982 0.19504,-36.08187 0.19504,-23.89204 0.19504,-36.08186 0,-2.24293 -0.29256,-9.94689 -0.29256,-7.70397 -0.29256,-12.28734 z"
         id="path1265" />
      <path
         d="M 314.95585,509.50107 V 381.36169 q 0.0975,-0.78015 1.56029,-1.36526 1.46278,-0.68263 1.75534,-0.97518 h 52.46498 v 126.96916 q -0.48759,2.04789 -0.97519,2.82803 -0.39007,0.68263 -1.36526,0.68263 z"
         id="path1267" />
      <path
         d="m 518.57459,379.02125 q 1.17022,0.39007 1.75533,3.41315 0.68263,2.92555 0.78015,7.41141 0.0975,4.48585 0,8.58163 -0.0975,4.09578 -0.29256,8.38659 -0.0975,4.29082 -0.0975,5.36353 -0.19504,3.90074 -0.19504,10.92207 v 10.33697 q 0,6.8263 0.19504,18.72356 0.19503,11.89727 0.19503,17.55334 v 35.49676 q -0.39007,3.31563 -5.46104,3.31563 h -54.6104 q -1.75533,-0.39008 -4.48585,-8.19156 -1.85285,-5.16848 -6.24119,-16.96823 -4.29082,-11.79974 -7.41141,-20.67393 -3.12059,-8.97171 -5.65608,-17.35831 v -0.58511 0.58511 q -0.29255,6.43623 -0.58511,19.21116 -0.29255,12.67741 -0.58511,19.01612 v 19.89378 q 0,2.92556 -0.68263,4.09578 -0.68263,1.07271 -3.60818,1.75534 h -40.17765 l -4.29082,-4.29082 q 0.4876,-16.18808 0.78015,-50.70965 0.29256,-34.52157 0.78015,-51.09972 v -21.06401 q 0.97519,-3.51067 2.34045,-3.51067 v 0.39008 q 6.63126,0 20.77145,-0.39008 14.23771,-0.39007 21.35656,-0.39007 h 16.38312 q 0.0975,0 0.29256,0.0975 1.75533,0.68263 1.95037,1.56029 l 0.0975,0.68263 q 3.51066,9.4593 7.11885,19.60123 3.60819,10.14193 8.58163,24.57468 4.97345,14.33523 6.92382,19.79627 v -14.43275 q 1.95037,-34.32653 1.95037,-48.75928 0,-1.5603 2.14541,-1.95037 2.14541,-0.39007 6.63126,-0.39007 z"
         id="path1269" />
      <path
         d="m 539.63861,401.84059 q -0.39007,-1.95037 -0.39007,-11.11712 0,-10.532 1.95037,-12.48237 H 594.249 v 81.91558 q 0,12.67742 7.41141,12.67742 3.1206,0 5.16849,-2.73052 2.04789,-2.82804 2.04789,-6.63126 v -14.43275 q 0.58511,-42.71313 0.58511,-43.1032 0,-16.96823 -0.39008,-24.57468 0,-2.73052 2.73052,-3.90074 h 54.22032 v 15.21289 q -1.26774,36.95954 -1.5603,47.58906 v 6.04615 q 0,1.17022 -0.0975,3.12059 -0.0975,1.95037 -0.0975,2.73052 0,3.31563 0.19503,4.68089 v 7.60645 q 0,13.55508 -2.73052,19.50371 v 0.39008 q -3.12059,7.31389 -8.9717,12.67741 -5.85112,5.266 -13.36005,8.28908 -7.50893,2.92555 -15.40793,4.29081 -7.899,1.26774 -16.67567,1.26774 -2.73052,0 -4.09578,-0.58511 h -2.34045 q 0,0.97519 -2.92555,0.97519 v 0.19503 q -2.14541,0.0975 -12.48238,-0.97518 h -4.48585 q -6.14367,-0.68263 -11.89727,-2.73052 -5.65607,-2.04789 -11.01959,-5.7536 -5.36352,-3.80322 -9.4593,-8.9717 -3.99826,-5.16849 -6.53375,-12.5799 -2.53548,-7.41141 -2.82803,-16.18808 0.0975,-5.07096 0,-14.04267 0,-8.97171 0.0975,-16.2856 0.0975,-7.41141 0.48759,-14.33522 v -2.73052 q 0,-0.4876 0.0975,-1.5603 0.0975,-1.07271 0.0975,-1.5603 0,-1.46278 -0.19504,-4.38833 -0.19504,-2.92556 -0.19504,-4.38834 v -3.31563 z"
         id="path1271" />
      <path
         d="m 669.33827,513.20678 q 0,-2.73052 3.51067,-8.19156 8.28908,-12.67741 23.69701,-36.86201 15.40793,-24.18461 18.04093,-28.28039 -27.50023,-47.29649 -41.73794,-70.60343 v -0.97519 q 0,-1.0727 1.17022,-1.95037 6.24119,0 18.52853,0.29256 12.28733,0.29256 18.52852,0.29256 1.65782,-0.0975 4.58337,0.0975 3.02308,0.0975 3.99827,0.0975 h 6.82629 q 2.14541,-0.19503 6.8263,-0.19503 1.26774,0.29255 3.90075,4.7784 2.633,4.48586 5.266,10.43449 l 9.84937,23.20942 q 0.29256,-0.58512 10.43449,-22.42927 l 3.7057,-7.80149 q 3.70571,-8.19155 5.07097,-8.19155 0.0975,0 0.19503,0.0975 0.19504,0 0.4876,0.0975 0.29255,0.0975 0.48759,0.19504 5.07096,-0.19504 17.16327,-0.58511 12.0923,-0.48759 20.96648,-0.68263 8.87419,-0.29256 17.26079,-0.29256 2.73052,0.58511 2.73052,4.29082 v 1.17022 q -34.42405,54.41536 -43.88335,69.82329 l 19.50371,29.93819 q 4.87593,7.60645 13.94515,21.74664 9.06923,14.14019 11.60471,18.13845 v 1.95037 q 0,3.51067 -6.04615,3.51067 -7.899,0 -23.20942,0.19504 -15.31041,0.19504 -22.6243,0.19504 h -4.68089 q -5.16848,0 -7.80149,-1.95037 l -17.84589,-37.73969 q -0.78015,1.65782 -2.14541,4.97345 -1.26774,3.21811 -2.633,6.33871 -1.26774,3.02307 -2.92556,6.8263 -1.65781,3.7057 -3.41315,6.92381 -1.65781,3.21812 -3.51066,6.14367 -1.75534,2.92556 -3.70571,4.97345 -1.95037,2.14541 -3.80322,2.92556 -21.84416,-0.39008 -31.98609,-0.39008 -4.1933,0 -11.99478,0.0975 -7.80149,0.0975 -11.99478,0.0975 -2.34045,-0.87767 -2.34045,-2.73052 z"
         id="path1273" />
    </g>
  </g>
</svg>
